<svg width="202" height="74" viewBox="0 0 202 74" fill="none" xmlns="http://www.w3.org/2000/svg">
    <path d="M195.462 11.732h-6.039V5.73a2.84 2.84 0 0 0-2.86-2.843 2.84 2.84 0 0 0-2.861 2.843v6h-6.038a2.84 2.84 0 0 0-2.861 2.843 2.84 2.84 0 0 0 2.861 2.843h6.038v6.001a2.84 2.84 0 0 0 2.861 2.843 2.84 2.84 0 0 0 2.86-2.843v-6h6.039a2.84 2.84 0 0 0 2.86-2.844 2.84 2.84 0 0 0-2.86-2.842z" fill="#F29C97"/>
    <path d="M70.92 57.62c-.454 0-.908.091-1.362.272-.454.18-1.09.496-1.907.902a38.289 38.289 0 0 1-4.54 2.12c-1.09.452-2.86 1.038-5.267 1.76-1.77.542-2.679 1.444-2.679 2.708 0 1.76.817 2.662 2.452 2.662 1.18 0 4.086-1.038 8.536-3.159 4.54-2.12 6.765-3.88 6.765-5.324 0-.541-.182-1.038-.59-1.399a2.037 2.037 0 0 0-1.408-.541zM108.196 63.622c-.635-.451-1.589-.903-2.996-1.399-2.997-1.038-5.131-1.895-6.448-2.527-2.451-1.218-4.177-1.804-5.175-1.804a1.92 1.92 0 0 0-1.408.586c-.363.406-.545.902-.545 1.534s.273 1.218.863 1.76c.59.541 1.407 1.128 2.588 1.715 5.448 2.797 9.262 4.196 11.668 4.196 1.59 0 2.407-.857 2.407-2.572 0-.541-.318-1.083-.954-1.489zM57.254 36.549c-1.544 0-2.27.677-2.27 2.075 0 1.354.726 2.03 2.27 2.03h49.853c1.589 0 2.361-.676 2.361-2.03 0-1.398-.772-2.075-2.361-2.075h-22.43V33.3h13.077c1.907.135 3.269-.27 4.177-1.173.862-.903 1.226-2.301 1.089-4.151V20.26c.137-1.94-.227-3.34-1.089-4.242-.863-.902-2.225-1.263-4.087-1.083H66.563c-1.817-.18-3.179.18-4.041 1.083-.863.858-1.272 2.302-1.272 4.242v7.716c-.136 1.895.273 3.248 1.135 4.106.863.857 2.27 1.263 4.132 1.263h12.94v3.204H57.254zm9.171-16.018c0-.632.136-1.083.409-1.354.272-.27.726-.406 1.317-.406h27.968c.636 0 1.044.135 1.317.406.272.27.408.722.408 1.354v1.579H66.38v-1.58h.045zm1.726 8.979c-.636 0-1.045-.136-1.317-.406-.273-.271-.409-.722-.409-1.354V25.9H97.89v1.85c0 .632-.136 1.083-.363 1.354-.227.27-.727.406-1.362.406H68.15z" fill="#235378"/>
    <path d="M103.157 51.53v-3.204c0-1.625-.409-2.798-1.181-3.52s-2.043-1.083-3.677-1.083H66.017c-1.68-.09-2.906.226-3.723 1.038-.818.767-1.181 1.985-1.181 3.565v3.203c0 3.069 1.635 4.603 4.904 4.603h14.21v5.189c-.044.767-.272 1.398-.635 1.805-.408.45-.908.676-1.634.676h-2.634c-1.589 0-2.406.858-2.406 2.572 0 1.625.999 2.437 2.951 2.437h3.95c1.862-.045 3.27-.587 4.132-1.58.863-.992 1.271-2.526 1.271-4.602v-6.587h13.122c1.634.09 2.86-.271 3.678-1.084.726-.631 1.135-1.85 1.135-3.429zm-5.449.135c-.272.36-.68.541-1.271.541H67.833c-1.18 0-1.726-.722-1.726-2.256 0-1.534.59-2.256 1.726-2.256h28.604c.59 0 .999.18 1.271.541.273.361.409.948.409 1.76 0 .767-.136 1.309-.409 1.67zM130.535 58.749c-.454-.993-.999-1.49-1.68-1.49-.59 0-1.044.181-1.408.497-.363.316-.544.812-.544 1.444 0 .316.045.496.045.587.499 2.842.772 4.828.908 5.956.182 1.895.954 2.888 2.27 2.888.727 0 1.317-.226 1.771-.632.454-.451.59-.993.454-1.715l-.499-2.752c-.454-2.211-.863-3.79-1.317-4.783zM122.907 57.53c-.635 0-1.09.226-1.407.632-.318.406-.591 1.038-.863 1.85l-1.816 6.362c0 1.535.726 2.257 2.225 2.257.635 0 1.135-.271 1.589-.903.408-.587.817-1.489 1.226-2.797.499-1.49.862-3.25 1.135-5.235.091-.676-.091-1.218-.454-1.624-.409-.361-.954-.541-1.635-.541zM133.713 58.478l.227 1.173.681 2.527c.5 1.715.999 3.204 1.362 4.287.273.812.954 1.218 1.907 1.218.727 0 1.317-.18 1.68-.496.409-.361.545-.858.454-1.534l-.181-1.219-.772-2.752c-.545-1.76-1.09-3.023-1.635-3.88-.545-.813-1.089-1.264-1.725-1.264-.636 0-1.181.18-1.589.496a1.486 1.486 0 0 0-.409 1.444zM170.808 25.449h-9.353v-8.754c0-1.805-.818-2.707-2.407-2.707s-2.406.902-2.406 2.707v25.043h-2.861c-1.77-.136-3.087.225-3.859 1.038-.772.812-1.18 2.165-1.18 4.015V62.45c0 .586 0 1.263.09 1.85.137 1.038.455 1.85.999 2.391.818.767 2.134 1.173 3.95 1.173h13.031c.227 0 .454.046.681.046 1.408 0 2.498-.361 3.179-1.083.817-.813 1.225-2.166 1.225-4.016V46.882c.091-1.805-.272-3.114-1.089-3.88-.817-.813-2.134-1.22-3.95-1.22h-5.403v-11.28h9.353c2.043 0 3.042-.812 3.042-2.436 0-1.76-1.044-2.617-3.042-2.617zm-5.585 20.936c.59 0 1.044.18 1.408.497.363.36.499.812.499 1.444v13.04c0 .586-.182 1.083-.499 1.444-.318.36-.818.541-1.408.541h-9.807c-.59 0-1.044-.18-1.407-.496-.364-.316-.5-.812-.5-1.444V48.416c0-.587.182-1.083.5-1.444.317-.361.771-.541 1.407-.541h9.807v-.046zM142.658 55.951c-.591 0-1.09.18-1.453.497-.363.315-.545.767-.545 1.353 0 .316.136.857.409 1.625l1.18 3.52c.454 1.308.863 2.21 1.317 2.797.454.586.953.902 1.498.902.681 0 1.226-.18 1.589-.496.318-.316.454-.722.5-1.038.045-.451.045-.903-.046-1.263-.181-.813-.681-2.076-1.362-3.836-1.09-2.752-2.088-4.06-3.087-4.06z" fill="#235378"/>
    <path d="M25.698 43.723c-4.04 0-7.355-3.294-7.355-7.31 0-4.015 3.314-7.31 7.355-7.31s7.356 3.294 7.356 7.31-3.315 7.31-7.356 7.31zM42.634 37c0-10.198-7.492-17.372-16.936-17.372-9.444 0-16.89 7.174-16.89 17.372 0 6.543 5.494 15.251 16.936 25.63C37.14 52.25 42.634 43.542 42.634 37zM25.698 13.988c11.85 0 22.566 9.024 22.566 22.967 0 9.295-7.537 20.305-22.566 33.074C10.67 57.305 3.133 46.295 3.133 37c0-13.943 10.715-23.012 22.565-23.012z" fill="#F29C97"/>
    <path d="M132.623 21.704a6.143 6.143 0 0 0-6.174 6.181c0 3.43 2.769 6.182 6.22 6.182 3.405 0 6.22-2.752 6.22-6.182a6.25 6.25 0 0 0-6.266-6.181zm0 10.468c-2.406 0-4.358-1.94-4.358-4.332 0-2.391 1.952-4.331 4.313-4.331 2.406 0 4.359 1.94 4.359 4.331.045 2.392-1.953 4.377-4.314 4.332z" fill="#235378"/>
    <path d="M146.562 18.5h-7.764c-.09-.632-.181-1.263-.227-1.94-.09-1.038-.862-1.805-1.907-1.805h-8.081c-1.09 0-1.862.722-1.953 1.805-.045.632-.136 1.263-.227 1.94H118.639c-.772 0-1.271.496-1.271 1.263v16.109c0 .902.499 1.399 1.407 1.399h12.123v4.241h-8.763c-1.77 0-2.679.767-2.679 2.256 0 1.534.909 2.347 2.679 2.347h8.672v4.196h-.272c-3.133.18-6.175.27-9.035.27-2.452 0-3.723.858-3.723 2.573 0 .812.227 1.489.726 1.94.499.451 1.18.632 2.089.587l22.293-1.4c2.361-.135 3.541-.902 3.541-2.39 0-.768-.227-1.354-.636-1.76-.408-.407-.998-.632-1.77-.587l-9.036.496v-3.925h8.082c1.771 0 2.679-.767 2.679-2.347 0-1.489-.908-2.256-2.679-2.256h-8.082v-4.196h11.533c.908 0 1.407-.497 1.407-1.399V19.9c0-.903-.499-1.399-1.362-1.399zm-13.939 17.146c-4.222 0-7.764-3.429-7.809-7.625 0-4.332 3.405-7.806 7.628-7.852 4.222-.09 7.945 3.294 7.945 7.716.046 4.242-3.45 7.716-7.764 7.761zm10.398-11.641a1.334 1.334 0 0 1-1.362-1.354c0-.767.59-1.353 1.362-1.353.772 0 1.362.586 1.362 1.353s-.59 1.354-1.362 1.354z" fill="#235378"/>
</svg>
